HIERARCHY
ROOT Hips
{
	OFFSET 0.000000 0.000000 0.000000
	CHANNELS 6 Xposition Yposition Zposition Xrotation Yrotation Zrotation
	JOINT LeftUpLeg_virtual
	{
		OFFSET 0.000000 0.000000 0.000000
		CHANNELS 3 Xrotation Yrotation Zrotation
		JOINT LeftUpLeg
		{
			OFFSET 15.427100 -6.655098 0.678600
			CHANNELS 3 Xrotation Yrotation Zrotation
			JOINT LeftLeg
			{
				OFFSET 4.081073 -39.591068 13.024000
				CHANNELS 3 Xrotation Yrotation Zrotation
				JOINT LeftFoot
				{
					OFFSET -4.081074 -37.707932 -15.979700
					CHANNELS 3 Xrotation Yrotation Zrotation
					JOINT LeftToeBase
					{
						OFFSET 5.346399 -15.068900 20.645000
						CHANNELS 3 Xrotation Yrotation Zrotation
						JOINT LeftToe_End
						{
							OFFSET 2.754700 0.931300 11.300900
							CHANNELS 3 Xrotation Yrotation Zrotation
							End Site
							{
								OFFSET 0 0 0
							}
						}
					}
				}
			}
		}
	}
	JOINT RightUpLeg_virtual
	{
		OFFSET 0.000000 0.000000 0.000000
		CHANNELS 3 Xrotation Yrotation Zrotation
		JOINT RightUpLeg
		{
			OFFSET -15.569500 -6.655098 0.678600
			CHANNELS 3 Xrotation Yrotation Zrotation
			JOINT RightLeg
			{
				OFFSET -4.081825 -39.591045 13.023800
				CHANNELS 3 Xrotation Yrotation Zrotation
				JOINT RightFoot
				{
					OFFSET 4.081824 -37.707954 -15.979600
					CHANNELS 3 Xrotation Yrotation Zrotation
					JOINT RightToeBase
					{
						OFFSET -5.346400 -15.068900 20.645000
						CHANNELS 3 Xrotation Yrotation Zrotation
						JOINT RightToe_End
						{
							OFFSET -2.754700 0.931300 11.300900
							CHANNELS 3 Xrotation Yrotation Zrotation
							End Site
							{
								OFFSET 0 0 0
							}
						}
					}
				}
			}
		}
	}
	JOINT Spine_virtual
	{
		OFFSET 0.000000 0.000000 0.000000
		CHANNELS 3 Xrotation Yrotation Zrotation
		JOINT Spine
		{
			OFFSET -0.279200 12.230698 -2.892100
			CHANNELS 3 Xrotation Yrotation Zrotation
			JOINT Spine1
			{
				OFFSET -0.232667 10.192268 -1.242267
				CHANNELS 3 Xrotation Yrotation Zrotation
				JOINT Spine1_split
				{
					OFFSET -0.232667 10.192268 -1.242267
					CHANNELS 3 Xrotation Yrotation Zrotation
					JOINT Spine2
					{
						OFFSET -0.232667 10.192268 -1.242267
						CHANNELS 3 Xrotation Yrotation Zrotation
						JOINT Neck_virtual
						{
							OFFSET 0.000000 0.000000 0.000000
							CHANNELS 3 Xrotation Yrotation Zrotation
							JOINT Neck
							{
								OFFSET -0.418800 17.814194 8.416900
								CHANNELS 3 Xrotation Yrotation Zrotation
								JOINT Head
								{
									OFFSET 0.000000 7.031097 3.806800
									CHANNELS 3 Xrotation Yrotation Zrotation
									JOINT HeadTop_End
									{
										OFFSET 0.000000 24.646606 12.978600
										CHANNELS 3 Xrotation Yrotation Zrotation
										End Site
										{
											OFFSET 0 0 0
										}
									}
								}
							}
						}
						JOINT LeftShoulder_virtual
						{
							OFFSET 0.000000 0.000000 0.000000
							CHANNELS 3 Xrotation Yrotation Zrotation
							JOINT LeftShoulder
							{
								OFFSET 8.476499 7.247704 -3.868750
								CHANNELS 3 Xrotation Yrotation Zrotation
								JOINT LeftShoulder_split
								{
									OFFSET 8.476499 7.247704 -3.868750
									CHANNELS 3 Xrotation Yrotation Zrotation
									JOINT LeftArm
									{
										OFFSET 9.308998 -2.777710 0.208600
										CHANNELS 3 Xrotation Yrotation Zrotation
										JOINT LeftForeArm
										{
											OFFSET 29.972298 0.000000 0.000000
											CHANNELS 3 Xrotation Yrotation Zrotation
											JOINT LeftHand
											{
												OFFSET 26.026505 0.000000 0.000000
												CHANNELS 3 Xrotation Yrotation Zrotation
												End Site
												{
													OFFSET 0 0 0
												}
											}
										}
									}
								}
							}
						}
						JOINT RightShoulder_virtual
						{
							OFFSET 0.000000 0.000000 0.000000
							CHANNELS 3 Xrotation Yrotation Zrotation
							JOINT RightShoulder
							{
								OFFSET -7.570500 7.247704 -3.868750
								CHANNELS 3 Xrotation Yrotation Zrotation
								JOINT RightShoulder_split
								{
									OFFSET -7.570500 7.247704 -3.868750
									CHANNELS 3 Xrotation Yrotation Zrotation
									JOINT RightArm
									{
										OFFSET -9.308998 -2.777710 0.208500
										CHANNELS 3 Xrotation Yrotation Zrotation
										JOINT RightForeArm
										{
											OFFSET -29.972300 0.000000 0.000000
											CHANNELS 3 Xrotation Yrotation Zrotation
											JOINT RightHand
											{
												OFFSET -26.026505 0.000000 0.000000
												CHANNELS 3 Xrotation Yrotation Zrotation
												End Site
												{
													OFFSET 0 0 0
												}
											}
										}
									}
								}
							}
						}
					}
				}
			}
		}
	}
}
MOTION
Frames: 4
Frame Time: 0.03333333
4.409252 72.053238 -4.873447 0.000000 0.000000 0.000000 4.079783 15.497983 -3.206500 15.807428 28.190214 19.201596 31.168260 8.982954 -8.178626 -27.082718 13.181434 -12.487600 -27.371082 -1.924834 0.356766 0.000000 0.000000 0.000000 3.320395 15.640049 -3.267977 -55.800023 19.241632 -0.332676 58.140025 -3.425683 3.866956 -1.200811 -5.624041 14.522379 7.087164 6.894015 -14.081480 0.000000 0.000000 0.000000 2.700323 16.475477 -1.873334 2.525833 -2.015307 -0.243037 4.384173 -6.577648 2.830183 0.019703 -0.458434 -0.239268 0.000000 0.000000 0.000000 4.632383 -3.493653 3.784084 -5.927618 10.634834 -9.945304 -15.087551 -50.472383 -42.967108 0.000000 0.000000 0.000000 3.346910 -6.048655 2.094780 0.329354 2.095467 -4.396031 1.589060 -1.515832 0.680259 -15.483993 11.229927 -58.421197 130.170169 -74.288839 123.922076 0.000000 0.000000 0.000000 3.344741 -5.777360 3.158476 -1.319542 -3.792946 15.238562 4.363771 5.619843 0.529806 -10.783168 -11.650538 61.755654 176.692459 59.718612 -169.922116 0.000000 0.000000 0.000000 
4.406190 74.130211 -4.843021 0.000000 0.000000 0.000000 4.741556 16.421474 -3.123729 13.568265 24.080109 20.530814 33.081506 9.926690 -8.710242 -18.548897 13.319295 -10.474162 -24.533800 -1.124802 -1.644035 0.000000 0.000000 0.000000 3.293467 16.970863 -3.104263 -53.177131 18.409738 -1.606378 54.298904 -4.029263 3.830765 0.212134 -5.464403 16.029884 3.295950 7.392248 -13.534833 0.000000 0.000000 0.000000 2.472026 17.467514 -2.135546 2.114228 -1.918059 0.585378 4.458602 -6.587352 2.785585 -0.140729 0.041662 -0.149825 0.000000 0.000000 0.000000 4.376733 -3.600914 3.602003 -6.127846 10.677903 -9.892515 -13.579276 -49.957281 -42.470212 0.000000 0.000000 0.000000 3.498498 -6.008339 2.097922 0.351062 0.654373 -3.761797 3.019006 -3.863465 1.644460 -20.023222 9.431392 -57.779241 133.012361 -73.929749 127.083975 0.000000 0.000000 0.000000 3.712480 -5.711338 2.900834 -1.455738 -3.345528 14.233426 3.259248 6.394385 -0.841943 -14.252837 -9.884558 62.519679 177.469242 55.935687 -171.565773 0.000000 0.000000 0.000000 
4.412458 77.270454 -4.352100 0.000000 0.000000 0.000000 4.729077 19.432879 -3.045401 8.125301 19.509921 21.561393 36.090119 11.445597 -8.731268 -4.728762 12.608628 -9.303193 -21.777059 0.395649 -6.920454 0.000000 0.000000 0.000000 3.940240 19.678960 -3.215046 -48.020745 17.466786 -2.355216 46.780194 -5.950564 3.729094 0.977521 -6.553260 14.602263 2.480228 7.605521 -11.497484 0.000000 0.000000 0.000000 2.332183 19.952287 -2.401057 1.598254 -1.827432 1.948871 4.683681 -6.784664 2.399387 -0.128270 0.433553 -0.021070 0.000000 0.000000 0.000000 4.297755 -3.719283 3.069462 -5.059901 10.542037 -9.240871 -9.784457 -48.512115 -39.546218 0.000000 0.000000 0.000000 3.924968 -6.013335 1.841710 0.380924 -1.506323 -3.717084 4.755912 -5.256776 1.595343 -26.719485 5.366393 -55.884512 136.551956 -74.747138 131.232769 0.000000 0.000000 0.000000 4.366178 -5.755169 2.367630 -1.514435 -3.266751 12.133422 3.067705 5.131464 -1.345626 -21.274461 -4.858901 62.313564 178.843026 55.450150 -174.001487 0.000000 0.000000 0.000000 
4.758722 80.581154 -3.952045 0.000000 0.000000 0.000000 4.202170 22.832411 -2.983700 0.041025 15.283590 21.843840 40.435205 12.461197 -8.190533 11.719835 10.159268 -10.237676 -24.919021 2.404348 -12.175333 0.000000 0.000000 0.000000 4.434754 22.476530 -3.416175 -42.063860 16.190827 -2.448067 38.597771 -8.369419 3.603960 2.050559 -8.369466 11.431642 3.116975 7.691854 -8.754209 0.000000 0.000000 0.000000 2.283192 23.394796 -2.434980 1.031742 -1.735493 3.425167 5.066668 -7.083104 1.852955 -0.033904 0.625951 0.071492 0.000000 0.000000 0.000000 4.526773 -3.777068 2.424162 -2.992723 10.326558 -7.922128 -4.839273 -45.992260 -35.350669 0.000000 0.000000 0.000000 4.545721 -6.039746 1.508210 0.338296 -4.018252 -4.025566 6.018858 -5.196564 1.113024 -34.873706 -0.133126 -53.641454 138.163580 -76.987010 133.630889 0.000000 0.000000 0.000000 5.187315 -5.874351 1.769988 -1.550964 -3.533184 9.195281 3.527040 3.005059 -1.089214 -30.676108 1.945568 62.124088 -178.792755 58.852448 -177.402402 0.000000 0.000000 0.000000 
